<?xml version="1.0" encoding="UTF-8" standalone="no"?>
<svg
   xmlns:dc="http://purl.org/dc/elements/1.1/"
   xmlns:cc="http://creativecommons.org/ns#"
   xmlns:rdf="http://www.w3.org/1999/02/22-rdf-syntax-ns#"
   xmlns:svg="http://www.w3.org/2000/svg"
   xmlns="http://www.w3.org/2000/svg"
   xmlns:sodipodi="http://sodipodi.sourceforge.net/DTD/sodipodi-0.dtd"
   xmlns:inkscape="http://www.inkscape.org/namespaces/inkscape"
   version="1.0"
   width="180"
   height="180"
   viewBox="0 0 1800 1800"
   preserveAspectRatio="xMidYMid meet"
   id="svg18"
   sodipodi:docname="favicon.svg"
   inkscape:version="0.92.4 5da689c313, 2019-01-14">
  <metadata
     id="metadata24">
    <rdf:RDF>
      <cc:Work
         rdf:about="">
        <dc:format>image/svg+xml</dc:format>
        <dc:type
           rdf:resource="http://purl.org/dc/dcmitype/StillImage" />
        <dc:title></dc:title>
      </cc:Work>
    </rdf:RDF>
  </metadata>
  <defs
     id="defs22" />
  <sodipodi:namedview
     pagecolor="#ffffff"
     bordercolor="#666666"
     borderopacity="1"
     objecttolerance="10"
     gridtolerance="10"
     guidetolerance="10"
     inkscape:pageopacity="0"
     inkscape:pageshadow="2"
     inkscape:window-width="1600"
     inkscape:window-height="865"
     id="namedview20"
     showgrid="false"
     inkscape:zoom="1.668772"
     inkscape:cx="62.97981"
     inkscape:cy="140.97136"
     inkscape:window-x="0"
     inkscape:window-y="35"
     inkscape:window-maximized="1"
     inkscape:current-layer="svg18"
     fit-margin-top="5"
     fit-margin-left="5"
     fit-margin-right="5"
     fit-margin-bottom="12"
     scale-x="10"
     units="px" />
  <g
     id="g893"
     transform="translate(-34.999999,-37.615965)">
    <path
       d="M 270,1485 65,1280 643,702 1220,125 1427,333 1635,540 1368,807 1100,1075 940,915 780,756 l -40,39 -40,39 155,156 c 85,85 155,160 155,165 0,10 -520,535 -530,535 -3,0 -97,-92 -210,-205 z M 648,1317 810,1155 707,1052 605,950 440,1115 275,1280 375,1380 c 55,55 102,100 105,100 3,0 78,-73 168,-163 z M 1322,438 1220,335 1055,500 890,665 992,767 1095,870 1260,705 1425,540 Z"
       id="path4"
       inkscape:connector-curvature="0"
       style="fill:#666666;stroke:none" />
    <g
       transform="matrix(0.1901852,-0.14858896,0.14858896,0.1901852,674.35192,456.15831)"
       id="g866">
      <path
         d="m 1781.2402,4627.1901 c -581.1169,428.3292 -1423.4105,656.8583 -2148.6092,656.8583 -1016.8461,0 -1932.2683,-376.0937 -2624.8206,-1001.6107 -54.4116,-49.1885 -5.659,-116.2235 59.6353,-77.9179 747.399,434.8586 1671.5276,696.4701 2626.1265,696.4701 643.7988,0 1352.0216,-133.2001 2003.2209,-409.6113 98.3763,-41.7885 180.6468,64.4234 84.4471,135.8115"
         id="path8-3"
         style="fill:#ff9900;fill-opacity:1;fill-rule:evenodd;stroke:none;stroke-width:10"
         inkscape:connector-curvature="0" />
      <path
         d="m 2022.8282,4350.7788 c -74.0002,-94.894 -491.0114,-44.8353 -678.1875,-22.6353 -57.0237,6.9648 -65.7292,-42.6588 -14.3649,-78.3531 332.1291,-233.7526 877.1169,-166.282 940.6697,-87.9293 63.5527,78.7883 -16.5411,625.082 -328.6468,885.8226 -47.8823,40.0469 -93.5881,18.7178 -72.2586,-34.3882 70.0822,-174.9881 227.2234,-567.1874 152.7881,-662.5167"
         id="path10-6"
         style="fill:#ff9900;fill-opacity:1;fill-rule:evenodd;stroke:none;stroke-width:10"
         inkscape:connector-curvature="0" />
    </g>
  </g>
</svg>
