<?xml version="1.0" standalone="no"?>
<!DOCTYPE svg PUBLIC "-//W3C//DTD SVG 20010904//EN"
 "http://www.w3.org/TR/2001/REC-SVG-20010904/DTD/svg10.dtd">
<svg version="1.0" xmlns="http://www.w3.org/2000/svg"
 width="732.000000pt" height="732.000000pt" viewBox="0 0 732.000000 732.000000"
 preserveAspectRatio="xMidYMid meet">
<metadata>
Created by potrace 1.11, written by Peter Selinger 2001-2013
</metadata>
<g transform="translate(0.000000,732.000000) scale(0.100000,-0.100000)"
fill="#000000" stroke="none">
<path d="M2505 4673 l-2307 -2307 704 -700 c741 -738 947 -938 960 -934 35 12
1198 1174 1805 1804 246 256 302 317 302 329 0 35 -247 293 -1131 1182 l-102
103 109 105 c61 59 133 128 160 156 l51 49 638 -635 c514 -512 641 -634 652
-624 45 37 2114 2113 2114 2121 0 5 -371 381 -824 834 l-824 824 -2307 -2307z
m2919 856 l208 -206 -645 -644 c-355 -355 -652 -651 -661 -658 -13 -11 -73 45
-422 393 -360 360 -404 408 -393 423 8 9 304 306 658 661 l645 644 201 -204
c111 -111 295 -296 409 -409z m-2658 -2253 c222 -222 404 -406 404 -409 0 -15
-1296 -1297 -1312 -1297 -13 0 -123 105 -477 455 l-343 341 653 656 c360 361
658 656 662 657 5 1 191 -181 413 -403z"/>
<path d="M6770 3837 c-68 -28 -99 -43 -145 -71 -27 -17 -55 -35 -62 -41 -6 -5
-26 -21 -45 -35 -79 -59 -168 -152 -250 -261 -32 -42 -98 -183 -102 -219 -4
-36 7 -60 28 -60 6 0 63 50 126 111 178 171 304 265 384 287 66 19 119 -32
181 -173 15 -33 31 -69 36 -80 5 -11 20 -56 35 -100 31 -98 31 -98 33 -108 0
-4 7 -23 15 -42 9 -20 15 -38 16 -40 9 -68 32 -93 62 -71 19 14 25 40 34 136
7 81 8 73 -1 150 -8 78 -38 207 -63 275 -26 69 -65 159 -72 165 -3 3 -14 22
-25 43 -11 21 -40 61 -65 89 -47 53 -76 63 -120 45z"/>
<path d="M6623 3290 c-18 -11 -33 -24 -33 -29 0 -9 -63 -118 -80 -138 -5 -7
-10 -15 -10 -17 0 -6 -59 -105 -73 -121 -4 -5 -36 -53 -70 -105 -34 -52 -66
-100 -72 -106 -5 -6 -19 -23 -30 -38 -18 -26 -35 -47 -98 -131 -32 -42 -129
-159 -195 -235 -78 -90 -363 -374 -441 -440 -35 -30 -74 -64 -87 -75 -93 -82
-294 -231 -444 -329 -74 -49 -147 -97 -162 -107 -15 -11 -29 -19 -32 -19 -2 0
-49 -26 -103 -58 -54 -32 -125 -71 -158 -87 -33 -16 -67 -35 -75 -41 -8 -7
-18 -13 -22 -14 -4 0 -49 -20 -100 -44 -96 -45 -305 -136 -323 -140 -5 -2 -22
-8 -36 -14 -92 -38 -452 -153 -519 -166 -14 -3 -50 -11 -80 -19 -86 -23 -266
-61 -340 -72 -25 -4 -86 -13 -127 -20 -62 -10 -86 -61 -40 -87 37 -22 606 -17
723 6 11 2 47 7 80 10 32 4 68 9 79 11 11 3 33 7 49 10 16 2 52 9 80 14 28 6
62 12 76 15 108 18 467 126 522 156 10 6 23 10 30 10 7 1 31 9 53 20 22 11 43
19 47 20 4 0 51 21 105 47 54 26 100 47 103 48 3 0 34 16 70 34 246 126 546
332 760 521 137 120 338 328 406 417 15 21 33 43 40 48 6 6 48 60 94 120 45
61 88 118 96 128 8 9 14 19 14 22 0 2 25 42 55 89 30 46 55 89 55 94 0 6 4 12
8 14 14 5 117 199 185 348 57 125 138 366 132 396 -2 10 -4 25 -4 32 -1 7 -17
20 -36 28 -42 17 -34 18 -72 -6z"/>
</g>
</svg>
